<svg width="19px" height="19px" viewBox="0 0 19 19" version="1.1" xmlns="http://www.w3.org/2000/svg" xmlns:xlink="http://www.w3.org/1999/xlink">
    <!-- Generator: Sketch 47.1 (45422) - http://www.bohemiancoding.com/sketch -->
    <title>Save</title>
    <desc>Created with Sketch.</desc>
    <defs>
        <path d="M6.31578947,4.21052632 L6.31578947,1.57894737 L5.26315789,1.57894737 L5.26315789,5.26315789 L15.2631579,5.26315789 L15.2631579,1.57894737 L14.2105263,1.57894737 L14.2105263,4.21052632 L6.31578947,4.21052632 Z M2.10526316,17.8947368 L18.4014046,17.8947368 L18.4204212,4.73838698 L15.2717935,1.59679695 L2.10526316,1.58026952 L2.10526316,17.8947368 Z M1.05263158,18.9473684 L1.05263158,0.526315789 L15.7076656,0.544711679 L19.4736842,4.30231266 L19.4525158,18.9473684 L1.05263158,18.9473684 Z M15.2631579,12.6315789 L15.2631579,17.8947368 L16.3157895,17.8947368 L16.3157895,11.5789474 L4.21052632,11.5789474 L4.21052632,17.8947368 L5.26315789,17.8947368 L5.26315789,12.6315789 L15.2631579,12.6315789 Z" id="path-1"></path>
    </defs>
    <g id="4-Detail-page-edit-text" stroke="none" stroke-width="1" fill="none" fill-rule="evenodd">
        <g id="4-1-4-copy-71" transform="translate(-1131.000000, -140.000000)">
            <g id="Group-2" transform="translate(245.000000, 128.000000)">
                <g id="Group-3" transform="translate(885.000000, 0.000000)">
                    <g id="Design/Icons/med-li/ui_controls/save-m-li" transform="translate(0.000000, 12.000000)">
                        <mask id="mask-2" fill="white">
                            <path d="M6.31578947,4.21052632 L6.31578947,1.57894737 L5.26315789,1.57894737 L5.26315789,5.26315789 L15.2631579,5.26315789 L15.2631579,1.57894737 L14.2105263,1.57894737 L14.2105263,4.21052632 L6.31578947,4.21052632 Z M2.10526316,17.8947368 L18.4014046,17.8947368 L18.4204212,4.73838698 L15.2717935,1.59679695 L2.10526316,1.58026952 L2.10526316,17.8947368 Z M1.05263158,18.9473684 L1.05263158,0.526315789 L15.7076656,0.544711679 L19.4736842,4.30231266 L19.4525158,18.9473684 L1.05263158,18.9473684 Z M15.2631579,12.6315789 L15.2631579,17.8947368 L16.3157895,17.8947368 L16.3157895,11.5789474 L4.21052632,11.5789474 L4.21052632,17.8947368 L5.26315789,17.8947368 L5.26315789,12.6315789 L15.2631579,12.6315789 Z"></path>
                        </mask>
                        <path id="Mask" fill="#232323" fill-rule="nonzero" d="M6.31578947,4.21052632 L6.31578947,1.57894737 L5.26315789,1.57894737 L5.26315789,5.26315789 L15.2631579,5.26315789 L15.2631579,1.57894737 L14.2105263,1.57894737 L14.2105263,4.21052632 L6.31578947,4.21052632 Z M2.10526316,17.8947368 L18.4014046,17.8947368 L18.4204212,4.73838698 L15.2717935,1.59679695 L2.10526316,1.58026952 L2.10526316,17.8947368 Z M1.05263158,18.9473684 L1.05263158,0.526315789 L15.7076656,0.544711679 L19.4736842,4.30231266 L19.4525158,18.9473684 L1.05263158,18.9473684 Z M15.2631579,12.6315789 L15.2631579,17.8947368 L16.3157895,17.8947368 L16.3157895,11.5789474 L4.21052632,11.5789474 L4.21052632,17.8947368 L5.26315789,17.8947368 L5.26315789,12.6315789 L15.2631579,12.6315789 Z"></path>
                    </g>
                </g>
            </g>
        </g>
    </g>
</svg>